<svg width="83" height="93" viewBox="0 0 83 93" fill="none" xmlns="http://www.w3.org/2000/svg">
<path d="M33.5392 58.3664C33.5667 58.3775 33.5965 58.382 33.626 58.3793C33.6556 58.3766 33.6841 58.3669 33.709 58.351L38.7571 55.4767L24.1751 47.1678C23.8753 46.9997 23.6263 46.7557 23.4538 46.4609C23.2814 46.1661 23.1916 45.8311 23.1938 45.4906V31.8471C23.1938 31.7194 23.1938 31.5393 23.1938 31.4393C21.1902 32.1696 19.4385 33.4485 18.1439 35.1265C16.8492 36.8044 16.0652 38.8119 15.8834 40.9141C15.7017 43.0162 16.1299 45.126 17.1178 46.9965C18.1057 48.867 19.6125 50.4208 21.4618 51.4761L33.5392 58.3664ZM35.0065 33.9012V39.659L49.5885 31.3424C49.8858 31.1701 50.2243 31.0792 50.569 31.0792C50.9137 31.0792 51.2522 31.1701 51.5495 31.3424L63.4992 38.1572C63.6082 38.2203 63.7655 38.3111 63.8527 38.3665C64.2154 36.2869 63.9708 34.1483 63.1476 32.2011C62.3244 30.2538 60.9566 28.5786 59.2045 27.3715C57.4524 26.1643 55.3885 25.4753 53.2543 25.385C51.1202 25.2947 49.0041 25.807 47.154 26.8617L35.0781 33.7473C35.0534 33.7658 35.0338 33.7902 35.0213 33.8182C35.0088 33.8462 35.0037 33.8769 35.0065 33.9074V33.9012ZM35.0065 50.1959L41.5016 53.9011L47.9935 50.1959V42.7948L41.5016 39.0912L35.0065 42.7948V50.1959ZM47.9935 59.0849V53.3333L33.4131 61.6499C33.1155 61.8222 32.7768 61.9131 32.4318 61.9131C32.0869 61.9131 31.7481 61.8222 31.4505 61.6499L19.5024 54.8351C19.3918 54.772 19.236 54.6812 19.1473 54.6258C18.7847 56.7056 19.0294 58.8443 19.8527 60.7917C20.676 62.7391 22.0438 64.4145 23.796 65.6217C25.5482 66.829 27.6123 67.5181 29.7466 67.6085C31.881 67.6989 33.9972 67.1868 35.8476 66.1321L47.9234 59.245C47.947 59.2269 47.9656 59.2035 47.9779 59.1766C47.9901 59.1498 47.9955 59.1204 47.9935 59.0911V59.0849ZM27.2139 45.7584L32.2636 48.6388V32.004C32.2614 31.6635 32.3511 31.3286 32.5236 31.0337C32.6961 30.7389 32.9451 30.4949 33.2449 30.3268L45.1946 23.512C45.3036 23.4474 45.464 23.3581 45.5544 23.312C43.912 21.9623 41.9145 21.1026 39.7956 20.8335C37.6767 20.5644 35.5241 20.897 33.5896 21.7924C31.655 22.6878 30.0187 24.109 28.8719 25.8896C27.7252 27.6702 27.1155 29.7366 27.1142 31.8471V45.6291C27.1194 45.6569 27.1312 45.683 27.1485 45.7055C27.1658 45.7279 27.1882 45.746 27.2139 45.7584ZM80.254 21.2624L44.2476 0.727074C43.4124 0.250759 42.4651 0 41.5008 0C40.5365 0 39.5891 0.250759 38.754 0.727074L2.74756 21.2624C1.91229 21.7385 1.21862 22.4234 0.736311 23.2483C0.254 24.0732 4.99679e-05 25.009 0 25.9616V67.0353C9.23044e-05 67.9882 0.254044 68.9242 0.736337 69.7493C1.21863 70.5744 1.91227 71.2596 2.74756 71.736L38.754 92.2729C39.5891 92.7492 40.5365 93 41.5008 93C42.4651 93 43.4124 92.7492 44.2476 92.2729L80.254 71.736C81.0889 71.2593 81.7821 70.574 82.2641 69.7489C82.7461 68.9238 82.9999 67.988 83 67.0353V25.9616C82.9998 25.0092 82.7459 24.0736 82.2639 23.2488C81.782 22.4239 81.0888 21.7389 80.254 21.2624ZM69.0488 58.6264C67.9962 60.4535 66.5607 62.0375 64.8383 63.2722C63.116 64.507 61.1464 65.364 59.0616 65.7859C58.0786 68.7974 56.1522 71.4223 53.5606 73.2817C50.969 75.1411 47.8462 76.1387 44.6432 76.1305C42.5154 76.1446 40.4091 75.7095 38.4653 74.8542C36.5216 73.9989 34.7853 72.7433 33.3726 71.1713C30.241 71.8362 26.9767 71.5007 24.0507 70.2132C21.1248 68.9258 18.6888 66.7531 17.0944 64.0087C16.0191 62.1945 15.3482 60.1743 15.1266 58.0834C14.905 55.9924 15.1378 53.8788 15.8094 51.8839C13.6622 49.5365 12.3253 46.576 11.9913 43.4295C11.6574 40.283 12.3436 37.113 13.9512 34.3767C15.0042 32.5497 16.4398 30.9658 18.1621 29.7309C19.8844 28.4959 21.8537 27.6384 23.9384 27.2156C24.9214 24.2041 26.8478 21.5792 29.4394 19.7198C32.031 17.8604 35.1538 16.8628 38.3568 16.871C40.4851 16.8577 42.5917 17.2938 44.5355 18.1501C46.4792 19.0065 48.2153 20.2633 49.6274 21.8364C52.7592 21.1711 56.0239 21.5065 58.9502 22.7939C61.8764 24.0814 64.3127 26.2543 65.9072 28.999C66.9822 30.8133 67.6528 32.8335 67.8742 34.9245C68.0955 37.0154 67.8624 39.129 67.1906 41.1238C69.3367 43.4709 70.673 46.4304 71.007 49.576C71.3409 52.7215 70.6553 55.8906 69.0488 58.6264ZM55.7861 47.2401L50.738 44.3597V60.9944C50.7402 61.335 50.6505 61.6699 50.478 61.9647C50.3055 62.2595 50.0565 62.5036 49.7567 62.6716L37.8086 69.488C37.698 69.5511 37.5375 69.6419 37.4472 69.685C39.0889 71.0356 41.0862 71.8961 43.2051 72.1657C45.3241 72.4354 47.4769 72.1031 49.4115 71.2076C51.3461 70.3122 52.9824 68.8907 54.1288 67.1097C55.2751 65.3287 55.884 63.2619 55.8842 61.1514V47.377C55.8803 47.3481 55.8694 47.3205 55.8523 47.2966C55.8352 47.2727 55.8124 47.2533 55.7861 47.2401ZM61.5366 41.5193L49.4592 34.6321C49.4321 34.6205 49.4025 34.6159 49.3731 34.6185C49.3437 34.6212 49.3155 34.6312 49.291 34.6475L44.2476 37.5264L58.8265 45.8445C59.1258 46.0129 59.3744 46.257 59.5466 46.5518C59.7188 46.8466 59.8084 47.1814 59.8062 47.5217V61.1514C59.8062 61.2776 59.8062 61.4591 59.8062 61.5607C61.81 60.8299 63.5617 59.5504 64.8563 57.872C66.151 56.1935 66.9349 54.1856 67.1164 52.0831C67.298 49.9805 66.8696 47.8704 65.8815 45.9996C64.8933 44.1289 63.3862 42.5748 61.5366 41.5193Z" fill="white"/>
</svg>
