<svg width="83" height="83" viewBox="0 0 83 83" fill="none" xmlns="http://www.w3.org/2000/svg">
<path d="M28.9067 5.92212H51.3549L28.0524 74.9671C27.8128 75.6768 27.3567 76.2934 26.7483 76.7302C26.1398 77.167 25.4097 77.402 24.6607 77.402H7.19083C6.62339 77.402 6.06409 77.2669 5.55922 77.0079C5.05434 76.7489 4.6184 76.3734 4.28746 75.9124C3.95651 75.4515 3.74009 74.9184 3.65608 74.3572C3.57207 73.796 3.6229 73.2229 3.80436 72.6852L25.515 8.357C25.7545 7.64731 26.2106 7.03063 26.8191 6.59382C27.4275 6.15701 28.1577 5.92208 28.9067 5.92212Z" fill="url(#paint0_linear_28_216)"/>
<path d="M61.5268 52.2329H25.9295C25.5987 52.2329 25.2755 52.3324 25.002 52.5185C24.7285 52.7047 24.5173 52.9689 24.396 53.2767C24.2747 53.5845 24.2489 53.9217 24.3218 54.2444C24.3948 54.5671 24.5632 54.8604 24.8052 55.086L47.6794 76.4349C48.3452 77.0563 49.222 77.4019 50.1328 77.402H70.2885L61.5268 52.2329Z" fill="#D0D0D0"/>
<path d="M28.9067 5.92214C28.1496 5.91932 27.4114 6.1586 26.8 6.60505C26.1885 7.0515 25.7358 7.68173 25.5079 8.40371L3.83128 72.6269C3.63768 73.1665 3.5769 73.7448 3.65407 74.3129C3.73125 74.881 3.9441 75.4221 4.27464 75.8905C4.60518 76.3589 5.04367 76.7408 5.55302 77.0039C6.06237 77.267 6.6276 77.4035 7.20089 77.402H25.1218C25.7894 77.2828 26.4134 76.9884 26.93 76.549C27.4466 76.1095 27.8373 75.5408 28.0621 74.901L32.3839 62.1624L47.8248 76.5636C48.4718 77.0989 49.2835 77.395 50.1232 77.402H70.2044L61.3966 52.2329L35.7218 52.2387L51.4366 5.92214H28.9067Z" fill="url(#paint1_linear_28_216)"/>
<path d="M57.5785 8.35311C57.3393 7.64459 56.884 7.02892 56.2765 6.59281C55.6691 6.15671 54.9401 5.92213 54.1923 5.92212H29.1743C29.9222 5.92211 30.6511 6.15668 31.2587 6.59278C31.8662 7.02889 32.3216 7.64456 32.5608 8.35311L54.2727 72.6849C54.4542 73.2226 54.505 73.7957 54.421 74.3569C54.337 74.9181 54.1206 75.4513 53.7896 75.9122C53.4587 76.3732 53.0228 76.7487 52.5179 77.0078C52.013 77.2668 51.4537 77.402 50.8863 77.402H75.9043C76.4717 77.4019 77.031 77.2667 77.5358 77.0077C78.0406 76.7486 78.4765 76.373 78.8074 75.9121C79.1383 75.4511 79.3547 74.918 79.4387 74.3568C79.5227 73.7957 79.4719 73.2225 79.2904 72.6849L57.5785 8.35311Z" fill="url(#paint2_linear_28_216)"/>
<defs>
<linearGradient id="paint0_linear_28_216" x1="37.0887" y1="11.2189" x2="13.7757" y2="80.091" gradientUnits="userSpaceOnUse">
<stop stop-color="#818181"/>
<stop offset="1" stop-color="#C0C0C0"/>
</linearGradient>
<linearGradient id="paint1_linear_28_216" x1="44.3713" y1="43.3149" x2="38.9782" y2="45.1383" gradientUnits="userSpaceOnUse">
<stop stop-opacity="0.3"/>
<stop offset="0.071" stop-opacity="0.2"/>
<stop offset="0.321" stop-opacity="0.1"/>
<stop offset="0.623" stop-opacity="0.05"/>
<stop offset="1" stop-opacity="0"/>
</linearGradient>
<linearGradient id="paint2_linear_28_216" x1="41.4051" y1="9.2097" x2="66.9954" y2="77.3884" gradientUnits="userSpaceOnUse">
<stop stop-color="white"/>
<stop offset="1" stop-color="#8D8D8D"/>
</linearGradient>
</defs>
</svg>
