<svg xmlns="http://www.w3.org/2000/svg" width="148" height="105" fill="none" viewBox="0 0 148 105"><path fill="#fff" d="M117.131 52.2972C117.131 46.5648 109.976 41.1322 99.0064 37.7634C101.538 26.5455 100.413 17.6206 95.4554 14.7632C94.3128 14.0929 92.9767 13.7755 91.5177 13.7755V17.7088C92.3263 17.7088 92.9767 17.8675 93.5217 18.1674C95.9125 19.5431 96.9497 24.7817 96.141 31.5194C95.9476 33.1774 95.6312 34.9236 95.2445 36.7051C91.7989 35.8584 88.037 35.2058 84.0816 34.7825C81.7084 31.5194 79.2473 28.5562 76.7686 25.9634C82.4995 20.6191 87.8787 17.6911 91.5352 17.6911V13.7578C86.7009 13.7578 80.3724 17.2149 73.9735 23.2119C67.5747 17.2502 61.2461 13.8284 56.4118 13.8284V17.7617C60.0507 17.7617 65.4476 20.672 71.1784 25.9811C68.7173 28.5739 66.2562 31.5194 63.9182 34.7825C59.9453 35.2058 56.1833 35.8584 52.7378 36.7227C52.3334 34.9589 52.0346 33.248 51.8236 31.6076C50.9974 24.8699 52.017 19.6313 54.3902 18.2379C54.9176 17.9204 55.6032 17.7793 56.4118 17.7793V13.846C54.9352 13.846 53.5991 14.1635 52.4389 14.8337C47.4991 17.6911 46.3916 26.5984 48.9406 37.781C38.0063 41.1675 30.8867 46.5824 30.8867 52.2972C30.8867 58.0296 38.0415 63.4622 49.011 66.8311C46.4795 78.0489 47.6046 86.9738 52.562 89.8312C53.7046 90.5015 55.0407 90.819 56.5173 90.819C61.3516 90.819 67.6802 87.3619 74.079 81.3649C80.4779 87.3266 86.8064 90.7484 91.6407 90.7484C93.1174 90.7484 94.4534 90.4309 95.6136 89.7607C100.553 86.9033 101.661 77.996 99.1119 66.8134C110.011 63.4445 117.131 58.012 117.131 52.2972ZM94.2424 40.5326C93.592 42.8079 92.7834 45.1537 91.8692 47.4996C91.1485 46.0886 90.3926 44.6775 89.5664 43.2665C88.7577 41.8554 87.8963 40.4796 87.0349 39.1391C89.5312 39.5095 91.9396 39.9681 94.2424 40.5326ZM86.1911 59.3172C84.82 61.6983 83.4136 63.956 81.9545 66.055C79.3352 66.2843 76.6807 66.4077 74.0087 66.4077C71.3542 66.4077 68.6998 66.2843 66.098 66.0726C64.6389 63.9737 63.215 61.7336 61.8438 59.3701C60.5078 57.0595 59.2948 54.7136 58.1873 52.3501C59.2773 49.9866 60.5078 47.6231 61.8263 45.3125C63.1974 42.9313 64.6038 40.6737 66.0629 38.5747C68.6822 38.3454 71.3366 38.222 74.0087 38.222C76.6632 38.222 79.3176 38.3454 81.9194 38.5571C83.3785 40.656 84.8024 42.8961 86.1736 45.2596C87.5096 47.5702 88.7226 49.9161 89.83 52.2796C88.7226 54.6431 87.5096 57.0066 86.1911 59.3172ZM91.8692 57.0242C92.8185 59.3877 93.6272 61.7513 94.2952 64.0442C91.9923 64.6087 89.5664 65.0849 87.0525 65.4553C87.9139 64.0971 88.7753 62.7037 89.5839 61.275C90.3926 59.864 91.1485 58.4353 91.8692 57.0242ZM74.0439 75.8442C72.409 74.1509 70.7741 72.2636 69.1568 70.2C70.7389 70.2705 72.3562 70.3234 73.9911 70.3234C75.6436 70.3234 77.2784 70.2881 78.8782 70.2C77.296 72.2636 75.6612 74.1509 74.0439 75.8442ZM60.9649 65.4553C58.4686 65.0849 56.0602 64.6263 53.7574 64.0619C54.4078 61.7865 55.2164 59.4407 56.1306 57.0948C56.8513 58.5058 57.6072 59.9169 58.4335 61.328C59.2597 62.739 60.1035 64.1148 60.9649 65.4553ZM73.956 28.7503C75.5908 30.4435 77.2257 32.3308 78.843 34.3945C77.2609 34.3239 75.6436 34.271 74.0087 34.271C72.3562 34.271 70.7214 34.3063 69.1217 34.3945C70.7038 32.3308 72.3387 30.4435 73.956 28.7503ZM60.9473 39.1391C60.0859 40.4973 59.2245 41.8907 58.4159 43.3194C57.6072 44.7304 56.8513 46.1415 56.1306 47.5525C55.1813 45.189 54.3726 42.8255 53.7046 40.5326C56.0075 39.9858 58.4335 39.5095 60.9473 39.1391ZM45.038 61.2221C38.815 58.5588 34.7893 55.0664 34.7893 52.2972C34.7893 49.528 38.815 46.018 45.038 43.3723C46.5499 42.7197 48.2023 42.1376 49.9075 41.5908C50.9095 45.0479 52.228 48.6461 53.8628 52.3325C52.2455 56.0012 50.9447 59.5818 49.9602 63.0212C48.2199 62.4744 46.5674 61.8747 45.038 61.2221ZM54.4957 86.4271C52.1049 85.0513 51.0677 79.8128 51.8764 73.075C52.0698 71.417 52.3862 69.6708 52.7729 67.8893C56.2185 68.736 59.9804 69.3886 63.9358 69.8119C66.309 73.075 68.7701 76.0382 71.2487 78.631C65.5179 83.9754 60.1386 86.9033 56.4822 86.9033C55.6911 86.8857 55.0231 86.7269 54.4957 86.4271ZM96.1937 72.9868C97.02 79.7246 96.0004 84.9631 93.6272 86.3565C93.0998 86.674 92.4142 86.8151 91.6055 86.8151C87.9666 86.8151 82.5698 83.9048 76.839 78.5957C79.3001 76.0029 81.7612 73.0573 84.0992 69.7943C88.0721 69.371 91.8341 68.7183 95.2796 67.8541C95.6839 69.6355 96.0004 71.3464 96.1937 72.9868ZM102.962 61.2221C101.45 61.8747 99.7975 62.4568 98.0923 63.0036C97.0903 59.5465 95.7718 55.9483 94.137 52.2619C95.7543 48.5932 97.0551 45.0126 98.0396 41.5732C99.7799 42.12 101.432 42.7197 102.979 43.3723C109.202 46.0357 113.228 49.528 113.228 52.2972C113.21 55.0664 109.185 58.5764 102.962 61.2221Z"/><path fill="#fff" d="M73.9912 60.3579C78.4282 60.3579 82.025 56.749 82.025 52.2972C82.025 47.8454 78.4282 44.2366 73.9912 44.2366C69.5543 44.2366 65.9575 47.8454 65.9575 52.2972C65.9575 56.749 69.5543 60.3579 73.9912 60.3579Z"/></svg>