<svg xmlns="http://www.w3.org/2000/svg" width="30" height="30" fill="none" viewBox="0 0 30 30"><mask id="mask0_28_186" width="30" height="30" x="0" y="0" maskUnits="userSpaceOnUse" style="mask-type:alpha"><path fill="#fff" d="M30 0H0V30H30V0Z"/></mask><g mask="url(#mask0_28_186)"><path fill="#fff" d="M24.525 14.5837C24.525 20.3462 21.0125 21.6212 17.675 21.9837C18.2 22.4337 18.6875 23.3587 18.6875 24.7587C18.6875 26.7712 18.675 28.3837 18.675 28.8712C18.675 29.2587 18.9375 29.7337 19.7 29.5837C25.7125 27.6212 30 21.9962 30 15.3712C30 7.08372 23.2875 0.371216 15 0.371216C6.7125 0.371216 0 7.08372 0 15.3712C0 21.9962 4.3 27.6212 10.2625 29.6087C11.0125 29.7462 11.2875 29.2837 11.2875 28.8837C11.2875 28.5212 11.275 27.5837 11.2625 26.3337C7.0875 27.2337 6.2125 24.3212 6.2125 24.3212C5.525 22.5837 4.5375 22.1212 4.5375 22.1212C3.1875 21.1962 4.65 21.2087 4.65 21.2087C6.15 21.3212 6.95 22.7587 6.95 22.7587C8.2875 25.0587 10.45 24.3962 11.3125 24.0087C11.45 23.0337 11.8375 22.3712 12.2625 21.9962C8.9375 21.6212 5.425 20.3337 5.425 14.5837C5.425 12.9462 6.0125 11.6087 6.975 10.5587C6.8 10.1837 6.3 8.65872 7.1 6.59622C7.1 6.59622 8.3625 6.19622 11.225 8.13372C12.425 7.79622 13.7 7.63372 14.975 7.62122C16.25 7.63372 17.525 7.79622 18.725 8.13372C21.575 6.19622 22.8375 6.59622 22.8375 6.59622C23.6375 8.65872 23.1375 10.1837 22.9875 10.5587C23.9375 11.6087 24.525 12.9462 24.525 14.5837Z"/></g></svg>