<svg width="165" height="137" viewBox="0 0 165 137" fill="none" xmlns="http://www.w3.org/2000/svg">
<path fill-rule="evenodd" clip-rule="evenodd" d="M88.8691 6C88.8691 2.68629 91.5554 0 94.8691 0C98.1828 0 100.869 2.68629 100.869 6L100.869 26.7799C97.1167 25.1102 93.0874 23.9503 88.8691 23.388L88.8691 6ZM88.8691 110.612L88.8691 127C88.8691 130.314 91.5554 133 94.8691 133C98.1829 133 100.869 130.314 100.869 127L100.869 107.22C97.1167 108.89 93.0874 110.05 88.8691 110.612Z" fill="white"/>
<path fill-rule="evenodd" clip-rule="evenodd" d="M122.652 86.095C119.808 91.9895 115.689 97.153 110.652 101.227L110.652 105C110.652 108.314 113.338 111 116.652 111C119.966 111 122.652 108.314 122.652 105L122.652 86.095ZM122.652 47.905L122.652 29C122.652 25.6863 119.966 23 116.652 23C113.338 23 110.652 25.6863 110.652 29L110.652 32.7727C115.689 36.847 119.808 42.0105 122.652 47.905Z" fill="white"/>
<path fill-rule="evenodd" clip-rule="evenodd" d="M132.435 51C132.435 47.6863 135.121 45 138.435 45C141.748 45 144.435 47.6863 144.435 51L144.435 79C144.435 82.3137 141.748 85 138.435 85C135.121 85 132.435 82.3137 132.435 79V51Z" fill="white"/>
<path fill-rule="evenodd" clip-rule="evenodd" d="M54.7827 33.2379V29C54.7827 25.6863 52.0964 23 48.7827 23C45.469 23 42.7827 25.6863 42.7827 29L42.7827 49.1244C45.5323 42.9476 49.663 37.5214 54.7827 33.2379ZM42.7827 84.8756L42.7827 105C42.7827 108.314 45.469 111 48.7827 111C52.0964 111 54.7827 108.314 54.7827 105V100.762C49.663 96.4786 45.5323 91.0524 42.7827 84.8756Z" fill="white"/>
<path fill-rule="evenodd" clip-rule="evenodd" d="M33 51C33 47.6863 30.3137 45 27 45C23.6863 45 21 47.6863 21 51V79C21 82.3137 23.6863 85 27 85C30.3137 85 33 82.3137 33 79L33 51Z" fill="white"/>
<path fill-rule="evenodd" clip-rule="evenodd" d="M76.5654 6C76.5654 2.68629 73.8791 0 70.5654 0C67.2517 0 64.5654 2.68629 64.5654 6L64.5654 27.0363C68.3107 25.3057 72.3405 24.0862 76.5654 23.4671L76.5654 6ZM76.5654 110.533C72.3405 109.914 68.3107 108.694 64.5654 106.964L64.5654 127C64.5654 130.314 67.2517 133 70.5654 133C73.8791 133 76.5654 130.314 76.5654 127L76.5654 110.533Z" fill="white"/>
<path d="M84.4502 98.9229C79.499 98.9229 75.0459 98.4102 71.0908 97.3848C67.1357 96.3594 63.2246 94.5137 59.3574 91.8477V75.8076H70.2119L71.5742 84.6406C72.6875 85.7246 74.416 86.6182 76.7598 87.3213C79.1035 88.0244 81.667 88.376 84.4502 88.376C86.5889 88.376 88.3906 88.0977 89.8555 87.541C91.3203 86.9551 92.4336 86.1348 93.1953 85.0801C93.957 83.9961 94.3379 82.7217 94.3379 81.2568C94.3379 79.8506 93.9863 78.6055 93.2832 77.5215C92.6094 76.4082 91.4814 75.3828 89.8994 74.4453C88.3174 73.5078 86.1787 72.585 83.4834 71.6768C78.21 70.0654 73.8594 68.3662 70.4316 66.5791C67.0332 64.7627 64.4844 62.624 62.7852 60.1631C61.1152 57.6729 60.2803 54.626 60.2803 51.0225C60.2803 47.5361 61.2617 44.4746 63.2246 41.8379C65.2168 39.1719 67.9414 37.0771 71.3984 35.5537C74.8555 34.0303 78.8398 33.2393 83.3516 33.1807C88.4199 33.0635 92.9023 33.6055 96.7988 34.8066C100.695 36.0078 104.094 37.7363 106.994 39.9922V54.8896H96.5352L94.7773 46.2324C93.7227 45.6172 92.2578 45.0752 90.3828 44.6064C88.5371 44.1377 86.4863 43.9033 84.2305 43.9033C82.2969 43.9033 80.583 44.1816 79.0889 44.7383C77.624 45.2656 76.4521 46.0713 75.5732 47.1553C74.7236 48.21 74.2988 49.5137 74.2988 51.0664C74.2988 52.3262 74.665 53.4541 75.3975 54.4502C76.1299 55.4463 77.3896 56.4131 79.1768 57.3506C80.9639 58.2588 83.4395 59.2695 86.6035 60.3828C93.752 62.4336 99.1719 65.0703 102.863 68.293C106.584 71.5156 108.444 75.8076 108.444 81.1689C108.444 84.8896 107.434 88.083 105.412 90.749C103.42 93.3857 100.622 95.4072 97.0186 96.8135C93.415 98.2197 89.2256 98.9229 84.4502 98.9229Z" fill="white"/>
<circle cx="159.5" cy="64.5" r="5.5" fill="white"/>
<circle cx="5.5" cy="64.5" r="5.5" fill="white"/>
</svg>
