<svg width="84" height="63" viewBox="0 0 84 63" fill="none" xmlns="http://www.w3.org/2000/svg">
<g clip-path="url(#clip0_28_210)">
<path d="M72.2859 36.1921C69.3491 36.2087 66.8062 36.914 64.6734 37.9642C63.8859 36.4056 63.0984 35.0437 62.9673 34.0267C62.8196 32.8454 62.6391 32.1234 62.8196 30.7126C62.9999 29.3015 63.8202 27.3 63.8202 27.1359C63.8037 26.9882 63.6396 26.2664 61.9499 26.25C60.2602 26.2335 58.7999 26.5781 58.6359 27.021C58.4718 27.464 58.1437 28.4812 57.9304 29.5312C57.6351 31.0734 54.5507 36.5367 52.7952 39.4078C52.221 38.2921 51.7288 37.3078 51.6302 36.5201C51.4827 35.339 51.3021 34.617 51.4827 33.2062C51.6632 31.7951 52.4835 29.7937 52.4835 29.6296C52.4671 29.482 52.3031 28.7601 50.6134 28.7437C48.9234 28.7273 47.4634 29.0718 47.2993 29.5148C47.1352 29.9578 46.9548 31.0078 46.5938 32.025C46.2491 33.0421 42.1476 42.164 41.0812 44.5429C40.5398 45.757 40.0642 46.725 39.7195 47.3812C39.3749 48.0375 39.7031 47.4304 39.6702 47.496C39.3749 48.0539 39.2109 48.3656 39.2109 48.3656V48.3821C38.9812 48.7923 38.7351 49.1859 38.6201 49.1859C38.538 49.1859 38.374 48.0867 38.6529 46.5775C39.2599 43.4109 40.7365 38.4728 40.7202 38.2923C40.7202 38.2103 40.999 37.3406 39.7685 36.8978C38.5709 36.4548 38.1445 37.1931 38.0459 37.1931C37.9474 37.1931 37.8654 37.4556 37.8654 37.4556C37.8654 37.4556 39.1943 31.894 35.3224 31.894C32.8943 31.894 29.5474 34.5354 27.8904 36.9472C26.8404 37.5214 24.6091 38.7353 22.2466 40.0315C21.3443 40.5237 20.4091 41.0487 19.5232 41.5245L19.3429 41.3273C14.6507 36.3234 5.97181 32.7796 6.33274 26.0531C6.46399 23.6085 7.31712 17.1609 23.0017 9.35152C35.8477 2.95308 46.1345 4.70855 47.9226 8.61324C50.4655 14.1914 42.4265 24.5601 29.072 26.0531C23.986 26.6273 21.3116 24.6585 20.6392 23.9203C19.9337 23.1492 19.8352 23.1164 19.5728 23.264C19.1462 23.4937 19.4087 24.1828 19.5728 24.5929C19.9665 25.6265 21.6071 27.464 24.3962 28.3828C26.8406 29.1867 32.8126 29.6296 40.0313 26.8406C48.1196 23.707 54.436 15.0117 52.5821 7.7437C50.6954 0.344486 38.4235 -2.08364 26.8243 2.03433C19.9171 4.49527 12.4359 8.33433 7.05462 13.371C0.656183 19.3429 -0.361004 24.5601 0.0655583 26.7257C1.55869 34.4531 12.2062 39.4898 16.4718 43.214C16.2585 43.3287 16.0616 43.4435 15.8812 43.5421C13.7484 44.592 5.62728 48.8414 3.5929 53.3365C1.29603 58.4224 3.95384 62.0812 5.72571 62.5734C11.2054 64.0992 16.8163 61.3593 19.8515 56.8476C22.8701 52.3359 22.5093 46.4789 21.1148 43.8046L21.0654 43.7062L22.7388 42.7218C23.8218 42.082 24.8882 41.4914 25.8232 40.9826C25.2984 42.4099 24.9209 44.0998 24.7241 46.5607C24.4945 49.4484 25.6757 53.1889 27.2343 54.6654C27.9234 55.3051 28.7437 55.3217 29.2523 55.3217C31.057 55.3217 31.8773 53.8285 32.7796 52.0404C33.8952 49.8584 34.8796 47.3318 34.8796 47.3318C34.8796 47.3318 33.6491 54.1732 37.0124 54.1732C38.2429 54.1732 39.4734 52.5818 40.0312 51.7615V51.7779C40.0312 51.7779 40.064 51.7287 40.1296 51.6139C40.1985 51.5121 40.2641 51.4082 40.3265 51.3023V51.2695C40.8187 50.4164 41.9179 48.464 43.5585 45.232C45.6748 41.0648 47.7093 35.8476 47.7093 35.8476C47.7093 35.8476 47.9062 37.1273 48.5132 39.2273C48.874 40.4743 49.6615 41.8359 50.2685 43.1648C49.7763 43.8539 49.481 44.2478 49.481 44.2478L49.4974 44.2642C49.1038 44.7892 48.6607 45.3472 48.2015 45.9048C46.528 47.9064 44.5265 50.187 44.264 50.8433C43.9523 51.6142 44.0179 52.1884 44.6249 52.6479C45.0679 52.9761 45.8554 53.0415 46.6921 52.9761C48.2015 52.8775 49.2515 52.5003 49.7765 52.2704C50.5968 51.9751 51.532 51.5322 52.4343 50.8759C54.0749 49.662 55.0757 47.9393 54.9773 45.6425C54.928 44.3792 54.5179 43.1323 54.0093 41.9511C54.157 41.7378 54.3048 41.5243 54.4523 41.2948C57.0445 37.5048 59.046 33.3378 59.046 33.3378C59.046 33.3378 59.2429 34.6175 59.8499 36.7175C60.1615 37.7839 60.7851 38.9489 61.3429 40.0973C58.9148 42.0825 57.389 44.3794 56.864 45.8887C55.896 48.6778 56.6507 49.9411 58.078 50.2364C58.7177 50.3676 59.6366 50.0723 60.3255 49.777C61.1787 49.4981 62.2123 49.0222 63.164 48.3169C64.8046 47.1028 66.3796 45.4129 66.2976 43.1325C66.2484 42.0825 65.9695 41.0489 65.5921 40.0645C67.6593 39.2114 70.3334 38.7192 73.7296 39.1294C81.0304 39.9825 82.4741 44.5434 82.1954 46.4465C81.9165 48.3498 80.3907 49.3997 79.882 49.7278C79.3734 50.0395 79.2093 50.1545 79.2585 50.384C79.3241 50.7287 79.5538 50.7122 79.9968 50.6467C80.6038 50.5481 83.8359 49.0881 83.9671 45.5773C84.164 41.065 79.882 36.1431 72.2859 36.1921ZM15.9796 55.1742C13.5679 57.8156 10.1718 58.8164 8.72806 57.9632C7.16946 57.0609 7.77633 53.1726 10.746 50.3671C12.5507 48.6609 14.8968 47.0859 16.439 46.1179C16.7835 45.9046 17.3085 45.5931 17.932 45.2156C18.0304 45.1501 18.096 45.1171 18.096 45.1171C18.2109 45.0515 18.3421 44.9695 18.4734 44.8875C19.5726 48.8906 18.5226 52.4015 15.9796 55.1742ZM33.6163 43.1812C32.7796 45.232 31.0077 50.4984 29.9413 50.2031C29.0224 49.957 28.4648 45.9703 29.7607 42.0328C30.417 40.0474 31.8115 37.6851 32.6318 36.7662C33.9609 35.2896 35.4044 34.7974 35.7656 35.4045C36.1921 36.1921 34.1413 41.9015 33.6163 43.1812ZM48.1687 50.1375C47.8077 50.3181 47.4796 50.4492 47.332 50.3509C47.2171 50.2853 47.4794 50.0392 47.4794 50.0392C47.4794 50.0392 49.3005 48.0868 50.0224 47.1845C50.4326 46.6597 50.9248 46.0526 51.4498 45.3634V45.5603C51.4499 47.9226 49.1859 49.4976 48.1687 50.1375ZM59.3904 47.5781C59.1279 47.3812 59.1609 46.7742 60.0466 44.871C60.3913 44.1164 61.1787 42.8531 62.5404 41.6554C62.7044 42.1476 62.803 42.6232 62.7865 43.0664C62.7702 46.0195 60.6702 47.1187 59.3904 47.5781Z" fill="white"/>
</g>
<defs>
<clipPath id="clip0_28_210">
<rect width="84" height="63" fill="white"/>
</clipPath>
</defs>
</svg>
