<svg xmlns="http://www.w3.org/2000/svg" width="58" height="48" fill="none" viewBox="0 0 58 48"><g filter="url(#filter0_d_23_170)"><path fill="#FFC5C5" d="M30.93 1.80451C30.93 0.807907 31.7441 0 32.7482 0C33.7524 0 34.5664 0.807907 34.5664 1.80451V8.05409C33.4293 7.55195 32.2083 7.2031 30.93 7.03399V1.80451Z"/><path fill="#FFC5C5" d="M30.93 33.2668V38.1955C30.93 39.1921 31.7441 40 32.7482 40C33.7524 40 34.5664 39.1921 34.5664 38.1955V32.2467C33.4293 32.7488 32.2083 33.0977 30.93 33.2668Z"/><path fill="#FFC5C5" d="M41.1672 25.8932C40.3055 27.666 39.0572 29.2189 37.5309 30.4443V31.5789C37.5309 32.5756 38.3449 33.3835 39.349 33.3835C40.3532 33.3835 41.1672 32.5756 41.1672 31.5789L41.1672 25.8932Z"/><path fill="#FFC5C5" d="M41.1672 14.4075V8.7218C41.1672 7.7252 40.3532 6.91729 39.349 6.91729C38.3449 6.91729 37.5309 7.7252 37.5309 8.7218V9.85646C39.0572 11.0818 40.3055 12.6347 41.1672 14.4075Z"/><path fill="#FFC5C5" d="M44.1317 15.3383C44.1317 14.3417 44.9457 13.5338 45.9499 13.5338C46.954 13.5338 47.7681 14.3417 47.7681 15.3383V23.7594C47.7681 24.756 46.954 25.5639 45.9499 25.5639C44.9457 25.5639 44.1317 24.756 44.1317 23.7594V15.3383Z"/><path fill="#FFC5C5" d="M20.6008 9.99636V8.7218C20.6008 7.7252 19.7868 6.91729 18.7826 6.91729C17.7785 6.91729 16.9645 7.7252 16.9645 8.7218V14.7743C17.7977 12.9166 19.0494 11.2846 20.6008 9.99636Z"/><path fill="#FFC5C5" d="M16.9645 25.5265V31.5789C16.9645 32.5756 17.7785 33.3835 18.7826 33.3835C19.7868 33.3835 20.6008 32.5756 20.6008 31.5789V30.3044C19.0494 29.0161 17.7977 27.3842 16.9645 25.5265Z"/><path fill="#FFC5C5" d="M14 15.3383C14 14.3417 13.186 13.5338 12.1818 13.5338C11.1777 13.5338 10.3636 14.3417 10.3636 15.3383V23.7594C10.3636 24.756 11.1777 25.5639 12.1818 25.5639C13.186 25.5639 14 24.756 14 23.7594V15.3383Z"/><path fill="#FFC5C5" d="M27.2016 1.80451C27.2016 0.807907 26.3876 0 25.3835 0C24.3793 0 23.5653 0.807907 23.5653 1.80451V8.13121C24.7002 7.61075 25.9214 7.24398 27.2016 7.05779V1.80451Z"/><path fill="#FFC5C5" d="M27.2016 33.243C25.9214 33.0568 24.7002 32.69 23.5653 32.1695V38.1955C23.5653 39.1921 24.3793 40 25.3835 40C26.3876 40 27.2016 39.1921 27.2016 38.1955V33.243Z"/><path fill="#FFC5C5" d="M29.591 29.7512C28.0906 29.7512 26.7412 29.597 25.5427 29.2887C24.3442 28.9803 23.159 28.4252 21.9871 27.6234V22.7993H25.2763L25.6892 25.4558C26.0265 25.7818 26.5503 26.0506 27.2605 26.262C27.9708 26.4735 28.7476 26.5792 29.591 26.5792C30.2391 26.5792 30.785 26.4955 31.2289 26.3281C31.6728 26.1519 32.0102 25.9052 32.241 25.588C32.4718 25.262 32.5872 24.8787 32.5872 24.4381C32.5872 24.0152 32.4807 23.6407 32.2676 23.3147C32.0634 22.9799 31.7217 22.6715 31.2422 22.3896C30.7628 22.1076 30.1148 21.8301 29.298 21.5569C27.7 21.0723 26.3816 20.5613 25.3429 20.0238C24.3131 19.4775 23.5407 18.8343 23.0258 18.0942C22.5198 17.3452 22.2668 16.4289 22.2668 15.3451C22.2668 14.2966 22.5642 13.3758 23.159 12.5828C23.7627 11.781 24.5883 11.151 25.6359 10.6928C26.6835 10.2347 27.8909 9.99677 29.2581 9.97915C30.7939 9.9439 32.1522 10.1069 33.333 10.4682C34.5137 10.8294 35.5436 11.3493 36.4225 12.0277V16.5082H33.2531L32.7204 13.9045C32.4008 13.7195 31.9569 13.5564 31.3887 13.4155C30.8294 13.2745 30.208 13.204 29.5244 13.204C28.9384 13.204 28.4191 13.2877 27.9663 13.4551C27.5224 13.6137 27.1673 13.856 26.901 14.182C26.6435 14.4992 26.5148 14.8913 26.5148 15.3583C26.5148 15.7372 26.6258 16.0764 26.8477 16.376C27.0697 16.6756 27.4514 16.9663 27.993 17.2483C28.5345 17.5214 29.2847 17.8254 30.2435 18.1602C32.4097 18.777 34.0521 19.57 35.1707 20.5392C36.2982 21.5085 36.8619 22.7993 36.8619 24.4117C36.8619 25.5307 36.5556 26.4911 35.9431 27.2929C35.3394 28.0859 34.4915 28.6939 33.3996 29.1168C32.3076 29.5398 31.0381 29.7512 29.591 29.7512Z"/><path fill="#FFC5C5" d="M54 19.3985C54 20.312 53.2538 21.0526 52.3333 21.0526C51.4129 21.0526 50.6667 20.312 50.6667 19.3985C50.6667 18.4849 51.4129 17.7444 52.3333 17.7444C53.2538 17.7444 54 18.4849 54 19.3985Z"/><path fill="#FFC5C5" d="M7.33333 19.3985C7.33333 20.312 6.58714 21.0526 5.66667 21.0526C4.74619 21.0526 4 20.312 4 19.3985C4 18.4849 4.74619 17.7444 5.66667 17.7444C6.58714 17.7444 7.33333 18.4849 7.33333 19.3985Z"/></g><defs><filter id="filter0_d_23_170" width="58" height="48" x="0" y="0" color-interpolation-filters="sRGB" filterUnits="userSpaceOnUse"><feFlood flood-opacity="0" result="BackgroundImageFix"/><feColorMatrix in="SourceAlpha" result="hardAlpha" type="matrix" values="0 0 0 0 0 0 0 0 0 0 0 0 0 0 0 0 0 0 127 0"/><feOffset dy="4"/><feGaussianBlur stdDeviation="2"/><feComposite in2="hardAlpha" operator="out"/><feColorMatrix type="matrix" values="0 0 0 0 0 0 0 0 0 0 0 0 0 0 0 0 0 0 0.25 0"/><feBlend in2="BackgroundImageFix" mode="normal" result="effect1_dropShadow_23_170"/><feBlend in="SourceGraphic" in2="effect1_dropShadow_23_170" mode="normal" result="shape"/></filter></defs></svg>